<svg width="22" height="22" viewBox="0 0 22 22" fill="none" xmlns="http://www.w3.org/2000/svg">
<path d="M18.3332 11.0008C18.3332 10.4946 17.9228 10.0841 17.4165 10.0841H9.59155C8.70065 10.0841 8.25448 9.00701 8.88444 8.37704L11.6507 5.61082C12.0097 5.25174 12.0087 4.66925 11.6484 4.31145C11.2898 3.95543 10.7109 3.95645 10.3536 4.31373L4.37361 10.2937C3.98309 10.6842 3.98309 11.3174 4.37361 11.7079L10.3533 17.6876C10.7104 18.0447 11.2893 18.0447 11.6464 17.6876C12.0032 17.3308 12.0035 16.7523 11.647 16.3951L8.88076 13.624C8.25166 12.9937 8.69802 11.9175 9.5885 11.9175H17.4165C17.9228 11.9175 18.3332 11.5071 18.3332 11.0008Z" fill="#495F6A"/>
</svg>
