<svg width="24" height="24" viewBox="0 0 24 24" fill="none" xmlns="http://www.w3.org/2000/svg">
<rect width="24" height="24" rx="12" fill="white"/>
<path d="M12.7053 4.70532C12.3158 4.31578 11.6842 4.31578 11.2947 4.70532C10.9054 5.0946 10.9051 5.72568 11.2941 6.11531L14.4666 9.29353C15.0957 9.92375 14.6493 11 13.7588 11H5C4.44771 11 4 11.4477 4 12C4 12.5523 4.44772 13 5 13H13.7588C14.6493 13 15.0957 14.0763 14.4666 14.7065L11.2941 17.8847C10.9051 18.2743 10.9054 18.9054 11.2947 19.2947C11.6842 19.6842 12.3158 19.6842 12.7053 19.2947L19.2929 12.7071C19.6834 12.3166 19.6834 11.6834 19.2929 11.2929L12.7053 4.70532Z" fill="#0D1F26"/>
</svg>
