<svg width="22" height="22" viewBox="0 0 22 22" fill="none" xmlns="http://www.w3.org/2000/svg">
<path d="M3.66683 11.0008C3.66683 10.4946 4.07723 10.0841 4.5835 10.0841H12.4084C13.2994 10.0841 13.7455 9.00701 13.1156 8.37704L10.3493 5.61082C9.99026 5.25174 9.99129 4.66925 10.3516 4.31145C10.7102 3.95543 11.2891 3.95645 11.6464 4.31373L17.6264 10.2937C18.0169 10.6842 18.0169 11.3174 17.6264 11.7079L11.6467 17.6876C11.2896 18.0447 10.7107 18.0447 10.3536 17.6876C9.99678 17.3308 9.99652 16.7523 10.353 16.3951L13.1192 13.624C13.7483 12.9937 13.302 11.9175 12.4115 11.9175H4.5835C4.07724 11.9175 3.66683 11.5071 3.66683 11.0008Z" fill="#495F6A"/>
</svg>
