<svg width="24" height="24" viewBox="0 0 24 24" fill="none" xmlns="http://www.w3.org/2000/svg">
<g clip-path="url(#clip0_2257_23785)">
<path d="M22.4039 12.3109C22.3074 12.1134 22.3074 11.8868 22.4039 11.6892L23.299 9.85808C23.7974 8.8385 23.4025 7.62328 22.4001 7.09139L20.5996 6.13608C20.4054 6.03305 20.2722 5.84968 20.2342 5.63316L19.8821 3.62557C19.686 2.50779 18.652 1.75667 17.5286 1.91562L15.5105 2.20109C15.2927 2.23184 15.0773 2.16181 14.9193 2.00895L13.4544 0.591834C12.6387 -0.197255 11.3609 -0.197302 10.5453 0.591834L9.08035 2.00909C8.92229 2.162 8.7069 2.23189 8.48912 2.20123L6.47102 1.91576C5.3472 1.75672 4.31361 2.50793 4.11753 3.62571L3.76541 5.63321C3.7274 5.84977 3.59422 6.0331 3.40002 6.13618L1.59956 7.09148C0.597101 7.62332 0.202228 8.83865 0.700601 9.85822L1.59567 11.6893C1.69224 11.8869 1.69224 12.1135 1.59567 12.311L0.700554 14.1421C0.202182 15.1617 0.597054 16.3769 1.59952 16.9088L3.39998 17.8641C3.59422 17.9672 3.7274 18.1505 3.76541 18.3671L4.11753 20.3747C4.29603 21.3922 5.16856 22.1058 6.17135 22.1057C6.27011 22.1057 6.37033 22.0988 6.47107 22.0846L8.48916 21.7991C8.7068 21.7682 8.92233 21.8384 9.08039 21.9912L10.5453 23.4083C10.9532 23.8029 11.4764 24.0002 11.9998 24.0001C12.5231 24.0001 13.0466 23.8028 13.4543 23.4083L14.9193 21.9912C15.0773 21.8384 15.2927 21.7685 15.5105 21.7991L17.5286 22.0846C18.6525 22.2436 19.686 21.4924 19.8821 20.3746L20.2342 18.3671C20.2722 18.1505 20.4054 17.9672 20.5996 17.8641L22.4001 16.9088C23.4025 16.377 23.7974 15.1617 23.299 14.1421L22.4039 12.3109ZM21.7513 15.686L19.9508 16.6413C19.3768 16.946 18.9831 17.4877 18.8708 18.1279L18.5187 20.1354C18.4524 20.5136 18.1027 20.7676 17.7225 20.7139L15.7044 20.4285C15.0608 20.3373 14.4239 20.5444 13.9568 20.9963L12.4919 22.4133C12.216 22.6802 11.7837 22.6802 11.5077 22.4133L10.0428 20.9962C9.648 20.6143 9.13191 20.4074 8.59313 20.4074C8.49441 20.4074 8.3949 20.4143 8.29524 20.4284L6.27715 20.7139C5.89718 20.7676 5.54726 20.5135 5.48089 20.1354L5.12872 18.1278C5.0164 17.4876 4.62275 16.9458 4.04867 16.6413L2.24822 15.686C1.90903 15.506 1.77544 15.0949 1.94405 14.7499L2.83917 12.9188C3.12454 12.3349 3.12454 11.6652 2.83917 11.0814L1.94405 9.25021C1.77544 8.90526 1.90903 8.49412 2.24822 8.31416L4.04867 7.35886C4.6227 7.05422 5.0164 6.51244 5.12867 5.87232L5.48079 3.86477C5.54717 3.48658 5.89676 3.23252 6.27705 3.28624L8.29515 3.57171C8.93851 3.66279 9.57558 3.45574 10.0427 3.00391L11.5076 1.5868C11.7835 1.31989 12.2158 1.31989 12.4918 1.5868L13.9567 3.00391C14.4238 3.45579 15.0608 3.66279 15.7043 3.57171L17.7224 3.28624C18.1024 3.23248 18.4523 3.48658 18.5186 3.86477L18.8707 5.87237C18.9831 6.51249 19.3767 7.05431 19.9508 7.35886L21.7512 8.31416C22.0904 8.49412 22.224 8.90526 22.0554 9.25021L21.1603 11.0813C20.8749 11.6651 20.8749 12.3349 21.1603 12.9187L22.0554 14.7498C22.2241 15.0949 22.0905 15.5061 21.7513 15.686Z" fill="#FFB400"/>
<path d="M17.0576 6.94343C16.7874 6.67315 16.3491 6.67315 16.0788 6.94343L6.94343 16.0788C6.67315 16.3491 6.67315 16.7874 6.94343 17.0576C7.07857 17.1928 7.25571 17.2604 7.4328 17.2604C7.6099 17.2604 7.78708 17.1928 7.92218 17.0576L17.0575 7.92227C17.3279 7.65194 17.3279 7.21376 17.0576 6.94343Z" fill="#FFB400"/>
<path d="M9.2316 5.77051C7.83229 5.77051 6.69385 6.90895 6.69385 8.30826C6.69385 9.70756 7.83229 10.846 9.2316 10.846C10.6309 10.846 11.7693 9.70756 11.7693 8.30826C11.7693 6.90895 10.6309 5.77051 9.2316 5.77051ZM9.2316 9.46175C8.59555 9.46175 8.0781 8.9443 8.0781 8.30821C8.0781 7.67217 8.59555 7.15472 9.2316 7.15472C9.86764 7.15472 10.3851 7.67217 10.3851 8.30821C10.3851 8.9443 9.86764 9.46175 9.2316 9.46175Z" fill="#FFB400"/>
<path d="M14.7672 13.1533C13.3679 13.1533 12.2295 14.2918 12.2295 15.6911C12.2295 17.0904 13.3679 18.2288 14.7672 18.2288C16.1665 18.2288 17.305 17.0904 17.305 15.6911C17.305 14.2918 16.1665 13.1533 14.7672 13.1533ZM14.7672 16.8446C14.1312 16.8446 13.6137 16.3271 13.6137 15.6911C13.6137 15.055 14.1312 14.5376 14.7672 14.5376C15.4033 14.5376 15.9207 15.055 15.9207 15.6911C15.9207 16.3271 15.4033 16.8446 14.7672 16.8446Z" fill="#FFB400"/>
</g>
<defs>
<clipPath id="clip0_2257_23785">
<rect width="24" height="24" fill="white"/>
</clipPath>
</defs>
</svg>
