<svg width="24" height="22" viewBox="0 0 24 22" fill="none" xmlns="http://www.w3.org/2000/svg">
<path d="M5.66683 10.9998C5.66683 10.4936 6.07723 10.0832 6.5835 10.0832H14.4084C15.2994 10.0832 15.7455 9.00603 15.1156 8.37606L12.3493 5.60984C11.9903 5.25077 11.9913 4.66827 12.3516 4.31047C12.7102 3.95445 13.2891 3.95547 13.6464 4.31276L19.6264 10.2927C20.0169 10.6833 20.0169 11.3164 19.6264 11.7069L13.6467 17.6866C13.2896 18.0437 12.7107 18.0437 12.3536 17.6866C11.9968 17.3298 11.9965 16.7513 12.353 16.3941L15.1192 13.623C15.7483 12.9928 15.302 11.9165 14.4115 11.9165H6.5835C6.07724 11.9165 5.66683 11.5061 5.66683 10.9998Z" fill="#495F6A"/>
</svg>
