<svg width="32" height="32" viewBox="0 0 32 32" fill="none" xmlns="http://www.w3.org/2000/svg">
<rect width="32" height="32" rx="5" fill="white" fill-opacity="0.08"/>
<path d="M20.5 6C20.5 5.44772 20.0523 5 19.5 5H8.5C7.4 5 6.5 5.9 6.5 7V20C6.5 20.5523 6.94772 21 7.5 21C8.05228 21 8.5 20.5523 8.5 20V8C8.5 7.44772 8.94772 7 9.5 7H19.5C20.0523 7 20.5 6.55228 20.5 6ZM23.5 9H12.5C11.4 9 10.5 9.9 10.5 11V25C10.5 26.1 11.4 27 12.5 27H23.5C24.6 27 25.5 26.1 25.5 25V11C25.5 9.9 24.6 9 23.5 9ZM23.5 24C23.5 24.5523 23.0523 25 22.5 25H13.5C12.9477 25 12.5 24.5523 12.5 24V12C12.5 11.4477 12.9477 11 13.5 11H22.5C23.0523 11 23.5 11.4477 23.5 12V24Z" fill="white"/>
</svg>
