<svg width="25" height="24" viewBox="0 0 25 24" fill="none" xmlns="http://www.w3.org/2000/svg">
<path d="M13.9202 22H10.4179V6.86834C10.4179 5.81503 10.6111 4.92871 10.9976 4.20938C11.3921 3.48148 11.9436 2.93342 12.6521 2.56519C13.3687 2.1884 14.2181 2 15.2003 2C15.5224 2 15.8324 2.02569 16.1303 2.07707C16.4282 2.11989 16.718 2.17555 16.9998 2.24406L16.9636 5.03147C16.8106 4.98865 16.6496 4.95868 16.4805 4.94155C16.3114 4.92443 16.1142 4.91586 15.8887 4.91586C15.4701 4.91586 15.1118 4.99294 14.8139 5.14708C14.524 5.29266 14.3026 5.51103 14.1497 5.80218C13.9967 6.09334 13.9202 6.44873 13.9202 6.86834V22ZM17 9.10148L16.6529 12.7219H8V9.10148H17Z" fill="#3B5999"/>
</svg>
