<svg width="14" height="15" viewBox="0 0 14 15" fill="none" xmlns="http://www.w3.org/2000/svg">
<path d="M13.295 2.615C13.6844 2.22564 13.6844 1.59436 13.295 1.205C12.9056 0.815639 12.2744 0.815639 11.885 1.205L7.70711 5.38289C7.31658 5.77342 6.68342 5.77342 6.29289 5.38289L2.115 1.205C1.72564 0.815639 1.09436 0.815639 0.705 1.205C0.315639 1.59436 0.315639 2.22564 0.705 2.615L4.88289 6.79289C5.27342 7.18342 5.27342 7.81658 4.88289 8.20711L0.705 12.385C0.315639 12.7744 0.315639 13.4056 0.705 13.795C1.09436 14.1844 1.72564 14.1844 2.115 13.795L6.29289 9.61711C6.68342 9.22658 7.31658 9.22658 7.70711 9.61711L11.885 13.795C12.2744 14.1844 12.9056 14.1844 13.295 13.795C13.6844 13.4056 13.6844 12.7744 13.295 12.385L9.11711 8.20711C8.72658 7.81658 8.72658 7.18342 9.11711 6.79289L13.295 2.615Z" fill="#495F6A"/>
</svg>
