<svg width="25" height="24" viewBox="0 0 25 24" fill="none" xmlns="http://www.w3.org/2000/svg">
<mask id="path-1-inside-1_3118_13295" fill="white">
<path d="M4.01205 7.7333C3.76533 7.60927 3.66476 7.308 3.80096 7.06778C4.49757 5.83916 5.44758 4.77029 6.58993 3.93333C7.86693 2.99774 9.3478 2.37869 10.9107 2.1271C12.4737 1.87551 14.074 1.99857 15.5801 2.48616C16.9274 2.92235 18.1648 3.6391 19.2118 4.58705C19.4165 4.7724 19.4156 5.09001 19.2202 5.28519L17.0999 7.40385C16.9045 7.59903 16.5892 7.5971 16.3784 7.41868C15.7831 6.91469 15.094 6.53049 14.3488 6.28926C13.4448 5.99658 12.4842 5.92271 11.546 6.07373C10.6079 6.22475 9.71897 6.59634 8.95245 7.15794C8.32067 7.62081 7.7869 8.20186 7.37981 8.86721C7.23569 9.10276 6.9369 9.20355 6.69017 9.07953L4.01205 7.7333Z"/>
</mask>
<path d="M4.01205 7.7333C3.76533 7.60927 3.66476 7.308 3.80096 7.06778C4.49757 5.83916 5.44758 4.77029 6.58993 3.93333C7.86693 2.99774 9.3478 2.37869 10.9107 2.1271C12.4737 1.87551 14.074 1.99857 15.5801 2.48616C16.9274 2.92235 18.1648 3.6391 19.2118 4.58705C19.4165 4.7724 19.4156 5.09001 19.2202 5.28519L17.0999 7.40385C16.9045 7.59903 16.5892 7.5971 16.3784 7.41868C15.7831 6.91469 15.094 6.53049 14.3488 6.28926C13.4448 5.99658 12.4842 5.92271 11.546 6.07373C10.6079 6.22475 9.71897 6.59634 8.95245 7.15794C8.32067 7.62081 7.7869 8.20186 7.37981 8.86721C7.23569 9.10276 6.9369 9.20355 6.69017 9.07953L4.01205 7.7333Z" stroke="#FF4B26" stroke-width="6" mask="url(#path-1-inside-1_3118_13295)"/>
<path d="M13.5 10.5C13.5 10.2239 13.7239 10 14 10H22C22.2761 10 22.5 10.2239 22.5 10.5V12C22.5 13.1046 21.6046 14 20.5 14H14C13.7239 14 13.5 13.7761 13.5 13.5V10.5Z" fill="#167EE6"/>
<mask id="path-3-inside-2_3118_13295" fill="white">
<path d="M18.2015 20.2154C17.0789 20.9945 15.8086 21.5352 14.4689 21.8043C13.1291 22.0733 11.7485 22.0649 10.4122 21.7796C9.07583 21.4943 7.81213 20.9382 6.69908 20.1455C5.58603 19.3528 4.64725 18.3405 3.94067 17.1709L7.36221 15.1038C7.78634 15.8059 8.34985 16.4136 9.01797 16.8894C9.68608 17.3652 10.4446 17.699 11.2468 17.8703C12.0489 18.0415 12.8776 18.0466 13.6818 17.8851C14.486 17.7236 15.2485 17.399 15.9224 16.9313L18.2015 20.2154Z"/>
</mask>
<path d="M18.2015 20.2154C17.0789 20.9945 15.8086 21.5352 14.4689 21.8043C13.1291 22.0733 11.7485 22.0649 10.4122 21.7796C9.07583 21.4943 7.81213 20.9382 6.69908 20.1455C5.58603 19.3528 4.64725 18.3405 3.94067 17.1709L7.36221 15.1038C7.78634 15.8059 8.34985 16.4136 9.01797 16.8894C9.68608 17.3652 10.4446 17.699 11.2468 17.8703C12.0489 18.0415 12.8776 18.0466 13.6818 17.8851C14.486 17.7236 15.2485 17.399 15.9224 16.9313L18.2015 20.2154Z" stroke="#12B347" stroke-width="6" mask="url(#path-3-inside-2_3118_13295)"/>
<mask id="path-4-inside-3_3118_13295" fill="white">
<path d="M4.05235 17.3514C3.07157 15.8031 2.53514 14.0151 2.50167 12.1826C2.46819 10.3502 2.93896 8.54377 3.86254 6.96073L7.31531 8.97515C6.76093 9.92538 6.47835 11.0097 6.49844 12.1096C6.51854 13.2096 6.84053 14.2828 7.42925 15.2122L4.05235 17.3514Z"/>
</mask>
<path d="M4.05235 17.3514C3.07157 15.8031 2.53514 14.0151 2.50167 12.1826C2.46819 10.3502 2.93896 8.54377 3.86254 6.96073L7.31531 8.97515C6.76093 9.92538 6.47835 11.0097 6.49844 12.1096C6.51854 13.2096 6.84053 14.2828 7.42925 15.2122L4.05235 17.3514Z" stroke="#FFD500" stroke-width="6" mask="url(#path-4-inside-3_3118_13295)"/>
<mask id="path-5-inside-4_3118_13295" fill="white">
<path d="M22.5 12C22.5 13.6142 22.1092 15.2044 21.3611 16.6348C20.613 18.0651 19.5297 19.2931 18.2038 20.2138L15.9237 16.9304C16.7196 16.3777 17.3699 15.6406 17.8189 14.782C18.268 13.9235 18.5026 12.9689 18.5026 12H22.5Z"/>
</mask>
<path d="M22.5 12C22.5 13.6142 22.1092 15.2044 21.3611 16.6348C20.613 18.0651 19.5297 19.2931 18.2038 20.2138L15.9237 16.9304C16.7196 16.3777 17.3699 15.6406 17.8189 14.782C18.268 13.9235 18.5026 12.9689 18.5026 12H22.5Z" stroke="#167EE6" stroke-width="6" mask="url(#path-5-inside-4_3118_13295)"/>
</svg>
