<svg width="18" height="18" viewBox="0 0 18 18" fill="none" xmlns="http://www.w3.org/2000/svg">
<mask id="mask0_2277_44501" style="mask-type:alpha" maskUnits="userSpaceOnUse" x="0" y="0" width="18" height="19">
<path d="M14.7157 8.85454C15.383 8.27544 15.0264 7.17891 14.1462 7.103L11.707 6.89267C11.3381 6.86087 11.017 6.62788 10.8724 6.2871L9.9212 4.04621C9.57627 3.23361 8.42446 3.23392 8.07998 4.04671L7.12782 6.29326C6.98308 6.63476 6.66121 6.8681 6.29164 6.89945L3.86163 7.10562C2.98021 7.1804 2.6228 8.27866 3.29139 8.85786L5.13879 10.4583C5.41936 10.7013 5.54221 11.0798 5.45787 11.4413L4.90341 13.818C4.70245 14.6795 5.63668 15.3584 6.394 14.9014L8.48326 13.6404C8.80106 13.4486 9.19894 13.4486 9.51674 13.6404L11.6098 14.9037C12.3666 15.3604 13.3004 14.6827 13.1007 13.8216L12.5485 11.44C12.4648 11.0791 12.5875 10.7016 12.8672 10.4589L14.7157 8.85454ZM9.4825 12.2178C9.183 12.0367 9 11.7121 9 11.3621V7.88302C9 7.23453 9.89011 7.05392 10.1429 7.65111C10.2288 7.85405 10.4198 7.99289 10.6394 8.01194L11.2147 8.06185C12.0948 8.13821 12.4508 9.23466 11.7835 9.8135L11.5333 10.0306C11.253 10.2738 11.1303 10.6522 11.2148 11.0135L11.2874 11.3242C11.4888 12.1862 10.5535 12.8655 9.7961 12.4074L9.4825 12.2178Z" fill="black"/>
</mask>
<g mask="url(#mask0_2277_44501)">
<rect y="0.000976562" width="9" height="18" fill="#FFB400"/>
<rect x="9" y="0.000976562" width="9" height="18" fill="#574B9B" fill-opacity="0.23"/>
</g>
</svg>
