<svg width="25" height="24" viewBox="0 0 25 24" fill="none" xmlns="http://www.w3.org/2000/svg">
<path d="M20.5 18C20.5 18.5523 20.0523 19 19.5 19H13.5C12.9477 19 12.5 19.4477 12.5 20C12.5 20.5523 12.9477 21 13.5 21H20.5C21.6 21 22.5 20.1 22.5 19V5C22.5 3.9 21.6 3 20.5 3H13.5C12.9477 3 12.5 3.44772 12.5 4C12.5 4.55228 12.9477 5 13.5 5H19.5C20.0523 5 20.5 5.44772 20.5 6V18Z" fill="#574B9B" fill-opacity="0.54"/>
<path d="M3.5 12H15M15 12L11 16M15 12L11 8" stroke="#574B9B" stroke-opacity="0.54" stroke-width="2" stroke-linecap="round" stroke-linejoin="round"/>
</svg>
