<svg width="110" height="30" viewBox="0 0 110 30" fill="none" xmlns="http://www.w3.org/2000/svg">
<g clip-path="url(#clip0_2257_31260)">
<path d="M18.8992 9.43708C18.7613 9.24973 18.5232 9.16465 18.2981 9.22266C17.7223 9.3709 16.6154 9.78426 15.799 10.8752C15.2082 11.6654 13.9582 11.1116 14.1443 10.1426C14.2285 9.70305 14.3939 9.21407 14.6728 8.67696C15.9657 6.18735 13.9853 4.28469 13.8439 4.15364C13.8384 4.14848 13.8328 4.14419 13.8263 4.13946C13.7602 4.09434 13.361 3.84555 12.9884 4.14633C12.9064 4.21251 10.9315 5.7654 8.93176 8.15661C6.77086 10.7407 4.81836 14.0248 4.81836 17.4061C4.81836 22.1447 8.67352 25.9994 13.4117 25.9994C18.1498 25.9994 22.005 22.1442 22.005 17.4061C22.005 14.5568 20.618 11.778 18.8979 9.43708H18.8992Z" fill="#F44336"/>
<path d="M18.8992 9.43708C18.7613 9.24973 18.5232 9.16465 18.2981 9.22266C17.7223 9.3709 16.6154 9.78426 15.799 10.8752C15.2082 11.6654 13.9582 11.1116 14.1443 10.1426C14.2285 9.70305 14.3939 9.21407 14.6728 8.67696C15.9657 6.18735 13.9853 4.28469 13.8439 4.15364C13.8384 4.14848 13.8328 4.14419 13.8263 4.13946C13.7602 4.09434 13.361 3.84555 12.9884 4.14633C12.9064 4.21251 10.9315 5.7654 8.93176 8.15661C6.77086 10.7407 4.81836 14.0248 4.81836 17.4061C4.81836 22.1447 8.67352 25.9994 13.4117 25.9994C18.1498 25.9994 22.005 22.1442 22.005 17.4061C22.005 14.5568 20.618 11.778 18.8979 9.43708H18.8992Z" fill="black" fill-opacity="0.9"/>
<path d="M6.03129 8.14062H2.19805C1.61189 8.14062 1.13672 8.6158 1.13672 9.20195C1.13672 9.78811 1.61189 10.2633 2.19805 10.2633H6.03129C6.61744 10.2633 7.09262 9.78811 7.09262 9.20195C7.09262 8.6158 6.61744 8.14062 6.03129 8.14062Z" fill="#F44336"/>
<path d="M6.03129 8.14062H2.19805C1.61189 8.14062 1.13672 8.6158 1.13672 9.20195C1.13672 9.78811 1.61189 10.2633 2.19805 10.2633H6.03129C6.61744 10.2633 7.09262 9.78811 7.09262 9.20195C7.09262 8.6158 6.61744 8.14062 6.03129 8.14062Z" fill="black" fill-opacity="0.9"/>
<path d="M3.75746 12.3828H1.06719C0.481032 12.3828 0.00585938 12.858 0.00585938 13.4441C0.00585938 14.0303 0.481032 14.5055 1.06719 14.5055H3.75746C4.34362 14.5055 4.81879 14.0303 4.81879 13.4441C4.81879 12.858 4.34362 12.3828 3.75746 12.3828Z" fill="#F44336"/>
<path d="M3.75746 12.3828H1.06719C0.481032 12.3828 0.00585938 12.858 0.00585938 13.4441C0.00585938 14.0303 0.481032 14.5055 1.06719 14.5055H3.75746C4.34362 14.5055 4.81879 14.0303 4.81879 13.4441C4.81879 12.858 4.34362 12.3828 3.75746 12.3828Z" fill="black" fill-opacity="0.9"/>
<path d="M3.22242 16.6289H2.84258C2.25642 16.6289 1.78125 17.1041 1.78125 17.6902C1.78125 18.2764 2.25642 18.7516 2.84258 18.7516H3.22242C3.80858 18.7516 4.28375 18.2764 4.28375 17.6902C4.28375 17.1041 3.80858 16.6289 3.22242 16.6289Z" fill="#F44336"/>
<path d="M3.22242 16.6289H2.84258C2.25642 16.6289 1.78125 17.1041 1.78125 17.6902C1.78125 18.2764 2.25642 18.7516 2.84258 18.7516H3.22242C3.80858 18.7516 4.28375 18.2764 4.28375 17.6902C4.28375 17.1041 3.80858 16.6289 3.22242 16.6289Z" fill="black" fill-opacity="0.9"/>
<path d="M4.37602 20.8594H1.47734C0.891188 20.8594 0.416016 21.3345 0.416016 21.9207C0.416016 22.5069 0.891188 22.982 1.47734 22.982H4.37602C4.96217 22.982 5.43734 22.5069 5.43734 21.9207C5.43734 21.3345 4.96217 20.8594 4.37602 20.8594Z" fill="#F44336"/>
<path d="M4.37602 20.8594H1.47734C0.891188 20.8594 0.416016 21.3345 0.416016 21.9207C0.416016 22.5069 0.891188 22.982 1.47734 22.982H4.37602C4.96217 22.982 5.43734 22.5069 5.43734 21.9207C5.43734 21.3345 4.96217 20.8594 4.37602 20.8594Z" fill="black" fill-opacity="0.9"/>
<path d="M19.466 10.2449C19.2821 9.97032 19.093 9.7009 18.8992 9.43708C18.7613 9.24973 18.5232 9.16465 18.2981 9.22266C17.7223 9.3709 16.6154 9.78426 15.799 10.8752C15.2082 11.6654 13.9582 11.1116 14.1443 10.1426C14.2285 9.70305 14.3939 9.21407 14.6728 8.67696C15.9657 6.18735 13.9853 4.28469 13.8439 4.15364C13.8384 4.14848 13.8328 4.14419 13.8263 4.13946C13.7602 4.09434 13.361 3.84555 12.9884 4.14633C12.9064 4.21251 10.9315 5.7654 8.93176 8.15661C6.77086 10.7407 4.81836 14.0248 4.81836 17.4061C4.81836 18.6917 5.10281 19.912 5.61113 21.0086C6.26297 21.1194 6.93285 21.1774 7.61605 21.1774C13.8598 21.1774 18.9787 16.3636 19.4651 10.2449H19.466Z" fill="#F44336"/>
<path d="M19.466 10.2449C19.2821 9.97032 19.093 9.7009 18.8992 9.43708C18.7613 9.24973 18.5232 9.16465 18.2981 9.22266C17.7223 9.3709 16.6154 9.78426 15.799 10.8752C15.2082 11.6654 13.9582 11.1116 14.1443 10.1426C14.2285 9.70305 14.3939 9.21407 14.6728 8.67696C15.9657 6.18735 13.9853 4.28469 13.8439 4.15364C13.8384 4.14848 13.8328 4.14419 13.8263 4.13946C13.7602 4.09434 13.361 3.84555 12.9884 4.14633C12.9064 4.21251 10.9315 5.7654 8.93176 8.15661C6.77086 10.7407 4.81836 14.0248 4.81836 17.4061C4.81836 18.6917 5.10281 19.912 5.61113 21.0086C6.26297 21.1194 6.93285 21.1774 7.61605 21.1774C13.8598 21.1774 18.9787 16.3636 19.4651 10.2449H19.466Z" fill="black" fill-opacity="0.9"/>
<path d="M13.4239 22.9963C10.7229 22.9963 8.5332 20.8066 8.5332 18.1055C8.5332 15.4045 10.7229 13.2148 13.4239 13.2148C16.1249 13.2148 18.3146 15.4045 18.3146 18.1055C18.3146 20.8066 16.1249 22.9963 13.4239 22.9963Z" fill="white"/>
<path d="M15.3618 17.6585H13.9086V15.1135C13.9086 14.7921 13.6482 14.5312 13.3264 14.5312C13.0045 14.5312 12.7441 14.7916 12.7441 15.1135V18.2407C12.7441 18.5621 13.0045 18.823 13.3264 18.823H15.3618C15.6832 18.823 15.944 18.5626 15.944 18.2407C15.944 17.9189 15.6836 17.6585 15.3618 17.6585Z" fill="#F44336"/>
<path d="M15.3618 17.6585H13.9086V15.1135C13.9086 14.7921 13.6482 14.5312 13.3264 14.5312C13.0045 14.5312 12.7441 14.7916 12.7441 15.1135V18.2407C12.7441 18.5621 13.0045 18.823 13.3264 18.823H15.3618C15.6832 18.823 15.944 18.5626 15.944 18.2407C15.944 17.9189 15.6836 17.6585 15.3618 17.6585Z" fill="black" fill-opacity="0.9"/>
</g>
<path d="M30.061 8.00879H34.2959C36.2852 8.00879 37.7241 8.30615 38.6128 8.90088C39.5015 9.49561 39.9458 10.4355 39.9458 11.7207C39.9458 12.6094 39.6963 13.3442 39.1973 13.9253C38.7051 14.4995 37.9839 14.8721 37.0337 15.043V15.1455C39.3101 15.5352 40.4482 16.7314 40.4482 18.7344C40.4482 20.0742 39.9937 21.1201 39.0845 21.8721C38.1821 22.624 36.9175 23 35.2905 23H30.061V8.00879ZM31.8042 14.4277H34.6753C35.9058 14.4277 36.791 14.2363 37.3311 13.8535C37.8711 13.4639 38.1411 12.811 38.1411 11.895C38.1411 11.0542 37.8403 10.4492 37.2388 10.0801C36.6372 9.7041 35.6802 9.51611 34.3677 9.51611H31.8042V14.4277ZM31.8042 15.9043V21.5132H34.9316C36.1416 21.5132 37.0508 21.2808 37.6592 20.8159C38.2744 20.3442 38.582 19.6094 38.582 18.6113C38.582 17.6816 38.2676 16.998 37.6387 16.5605C37.0166 16.123 36.0664 15.9043 34.7881 15.9043H31.8042ZM45.1615 11.7617V19.0522C45.1615 19.9683 45.37 20.6519 45.787 21.103C46.204 21.5542 46.8568 21.7798 47.7455 21.7798C48.9213 21.7798 49.7792 21.4585 50.3192 20.8159C50.8661 20.1733 51.1395 19.124 51.1395 17.668V11.7617H52.8417V23H51.4369L51.1908 21.4927H51.0985C50.7499 22.0464 50.2645 22.4702 49.6424 22.7642C49.0272 23.0581 48.3231 23.2051 47.5301 23.2051C46.1629 23.2051 45.1376 22.8804 44.454 22.231C43.7772 21.5815 43.4388 20.5425 43.4388 19.1138V11.7617H45.1615ZM54.8171 11.7617H56.6423L59.1032 18.1704C59.6433 19.6333 59.9782 20.6895 60.1081 21.3389H60.1902C60.279 20.9902 60.4636 20.3955 60.7439 19.5547C61.031 18.707 61.9607 16.1094 63.5329 11.7617H65.3581L60.5285 24.5586C60.05 25.8232 59.4895 26.7188 58.8469 27.2451C58.2112 27.7783 57.4284 28.0449 56.4988 28.0449C55.9792 28.0449 55.4665 27.9868 54.9607 27.8706V26.5068C55.3366 26.5889 55.7571 26.6299 56.2219 26.6299C57.3908 26.6299 58.2248 25.9736 58.7238 24.6611L59.3493 23.0615L54.8171 11.7617Z" fill="#495F6A"/>
<path d="M77.2183 23H74.7984V16.0273C74.7984 15.1523 74.6207 14.4995 74.2652 14.0688C73.9166 13.6382 73.3595 13.4229 72.5938 13.4229C71.5753 13.4229 70.8302 13.7236 70.3585 14.3252C69.8868 14.9268 69.651 15.9351 69.651 17.3501V23H67.2413V11.6592H69.128L69.4664 13.146H69.5894C69.9312 12.606 70.4166 12.189 71.0455 11.895C71.6744 11.6011 72.3717 11.4541 73.1373 11.4541C75.858 11.4541 77.2183 12.8384 77.2183 15.6069V23ZM90.7705 17.3091C90.7705 19.1616 90.2954 20.6074 89.3452 21.6465C88.395 22.6855 87.0722 23.2051 85.3769 23.2051C84.3173 23.2051 83.3808 22.9658 82.5673 22.4873C81.7538 22.0088 81.1284 21.3218 80.6909 20.4263C80.2534 19.5308 80.0346 18.4917 80.0346 17.3091C80.0346 15.4702 80.5063 14.0347 81.4496 13.0024C82.393 11.9702 83.7226 11.4541 85.4384 11.4541C87.079 11.4541 88.3779 11.9839 89.3349 13.0435C90.2919 14.0962 90.7705 15.5181 90.7705 17.3091ZM82.5161 17.3091C82.5161 19.9272 83.4833 21.2363 85.4179 21.2363C87.332 21.2363 88.289 19.9272 88.289 17.3091C88.289 14.7183 87.3251 13.4229 85.3974 13.4229C84.3857 13.4229 83.6508 13.7578 83.1928 14.4277C82.7416 15.0977 82.5161 16.0581 82.5161 17.3091ZM102.99 23L101.523 17.709C101.346 17.1484 101.024 15.8462 100.559 13.8022H100.467C100.071 15.6479 99.7562 16.957 99.5237 17.7295L98.0164 23H95.3504L92.1717 11.6592H94.6326L96.0784 17.2476C96.4065 18.6284 96.639 19.811 96.7757 20.7954H96.8372C96.9056 20.2964 97.0081 19.7256 97.1448 19.083C97.2884 18.4336 97.4114 17.9482 97.514 17.627L99.2366 11.6592H101.882L103.554 17.627C103.656 17.9619 103.783 18.4746 103.933 19.165C104.09 19.8555 104.182 20.3921 104.21 20.7749H104.292C104.394 19.9341 104.634 18.7583 105.01 17.2476L106.476 11.6592H108.896L105.697 23H102.99Z" fill="#1F292D"/>
<defs>
<clipPath id="clip0_2257_31260">
<rect width="22" height="22" fill="white" transform="translate(0 4)"/>
</clipPath>
</defs>
</svg>
