<svg width="60" height="59" viewBox="0 0 60 59" fill="none" xmlns="http://www.w3.org/2000/svg">
<rect x="0.5" width="59" height="59" rx="29.5" fill="#422659" fill-opacity="0.04"/>
<g clip-path="url(#clip0_3065_19158)">
<path d="M25.8751 29.2512C25.2451 29.8812 25.6913 30.9583 26.5822 30.9583H26.8867C27.439 30.9583 27.8867 31.406 27.8867 31.9583V34.3333C27.8867 34.8856 28.3344 35.3333 28.8867 35.3333H31.1159C31.6682 35.3333 32.1159 34.8856 32.1159 34.3333V31.9583C32.1159 31.406 32.5636 30.9583 33.1159 30.9583H33.4204C34.3113 30.9583 34.7575 29.8812 34.1275 29.2512L30.7084 25.8321C30.3179 25.4416 29.6847 25.4416 29.2942 25.8321L25.8751 29.2512Z" fill="#495F6A"/>
<path d="M40.7188 26.6423C39.7271 21.6111 35.3083 17.834 30 17.834C25.7854 17.834 22.125 20.2257 20.3021 23.7257C15.9125 24.1923 12.5 27.9111 12.5 32.4173C12.5 37.2444 16.4229 41.1673 21.25 41.1673H40.2083C44.2333 41.1673 47.5 37.9007 47.5 33.8757C47.5 30.0257 44.5104 26.9048 40.7188 26.6423ZM40.2083 38.2507H21.25C18.0271 38.2507 15.4167 35.6402 15.4167 32.4173C15.4167 29.4277 17.6479 26.934 20.6083 26.6277L21.3885 26.5475C21.9792 26.5475 22.3267 26.5475 22.5333 25.7746L22.8979 25.0819C24.2833 22.4132 26.9958 20.7507 30 20.7507C33.8208 20.7507 37.1167 23.4632 37.8604 27.2111L38.0792 28.3048C38.0792 29.2045 38.75 29.5007 39.4135 29.4788L40.5292 29.559C42.8042 29.7048 44.5833 31.6152 44.5833 33.8757C44.5833 36.2819 42.6146 38.2507 40.2083 38.2507Z" fill="#495F6A"/>
</g>
<defs>
<clipPath id="clip0_3065_19158">
<rect width="35" height="35" fill="white" transform="translate(12.5 12)"/>
</clipPath>
</defs>
</svg>
