<svg width="48" height="48" viewBox="0 0 48 48" fill="none" xmlns="http://www.w3.org/2000/svg">
<rect width="48" height="48" rx="24" fill="#574B9B" fill-opacity="0.04"/>
<path d="M30.295 19.115C30.6844 18.7256 30.6844 18.0944 30.295 17.705C29.9056 17.3156 29.2744 17.3156 28.885 17.705L25.4142 21.1758C24.6332 21.9568 23.3668 21.9568 22.5858 21.1758L19.115 17.705C18.7256 17.3156 18.0944 17.3156 17.705 17.705C17.3156 18.0944 17.3156 18.7256 17.705 19.115L21.1758 22.5858C21.9568 23.3668 21.9568 24.6332 21.1758 25.4142L17.705 28.885C17.3156 29.2744 17.3156 29.9056 17.705 30.295C18.0944 30.6844 18.7256 30.6844 19.115 30.295L22.5858 26.8242C23.3668 26.0432 24.6332 26.0432 25.4142 26.8242L28.885 30.295C29.2744 30.6844 29.9056 30.6844 30.295 30.295C30.6844 29.9056 30.6844 29.2744 30.295 28.885L26.8242 25.4142C26.0432 24.6332 26.0432 23.3668 26.8242 22.5858L30.295 19.115Z" fill="#495F6A"/>
</svg>
