<svg width="32" height="32" viewBox="0 0 32 32" fill="none" xmlns="http://www.w3.org/2000/svg">
<path d="M13 22.5C13 23.0523 13.4477 23.5 14 23.5H25C25.5523 23.5 26 23.0523 26 22.5C26 21.9477 25.5523 21.5 25 21.5H14C13.4477 21.5 13 21.9477 13 22.5ZM7 8.5C6.44772 8.5 6 8.94772 6 9.5C6 10.0523 6.44772 10.5 7 10.5H25C25.5523 10.5 26 10.0523 26 9.5C26 8.94772 25.5523 8.5 25 8.5H7ZM15 16.5C15 17.0523 15.4477 17.5 16 17.5H25C25.5523 17.5 26 17.0523 26 16.5C26 15.9477 25.5523 15.5 25 15.5H16C15.4477 15.5 15 15.9477 15 16.5Z" fill="#495F6A"/>
<rect x="11" y="15.5" width="2" height="2" rx="1" fill="#495F6A"/>
</svg>
