<svg width="64" height="64" viewBox="0 0 64 64" fill="none" xmlns="http://www.w3.org/2000/svg">
<path d="M62 47V49.8125C62 56.5438 56.5438 62 49.8125 62H27.1419C30.1447 58.8106 32 54.5281 32 49.8125V45.125H60.125C61.1609 45.125 62 45.9641 62 47ZM48.875 6.6875V39.5H29.1875C27.6341 39.5 26.375 40.7591 26.375 42.3125V49.8125C26.375 56.5325 20.9075 62 14.1875 62C7.4675 62 2 56.5325 2 49.8125V6.6875C2 4.10281 4.10281 2 6.6875 2H44.1875C46.7722 2 48.875 4.10281 48.875 6.6875ZM37.625 24.5H13.25V30.125H37.625V24.5ZM37.625 13.25H13.25V18.875H37.625V13.25Z" fill="#495F6A"/>
</svg>
