<svg width="22" height="22" viewBox="0 0 22 22" fill="none" xmlns="http://www.w3.org/2000/svg">
<path d="M4.58317 10.9997C4.58317 11.5059 4.99358 11.9163 5.49984 11.9163H9.08317C9.63546 11.9163 10.0832 12.3641 10.0832 12.9163V16.4997C10.0832 17.0059 10.4936 17.4163 10.9998 17.4163C11.5061 17.4163 11.9165 17.0059 11.9165 16.4997V12.9163C11.9165 12.3641 12.3642 11.9163 12.9165 11.9163H16.4998C17.0061 11.9163 17.4165 11.5059 17.4165 10.9997C17.4165 10.4934 17.0061 10.083 16.4998 10.083H12.9165C12.3642 10.083 11.9165 9.63529 11.9165 9.08301V5.49967C11.9165 4.99341 11.5061 4.58301 10.9998 4.58301C10.4936 4.58301 10.0832 4.99341 10.0832 5.49967V9.08301C10.0832 9.63529 9.63546 10.083 9.08317 10.083H5.49984C4.99358 10.083 4.58317 10.4934 4.58317 10.9997Z" fill="#495F6A"/>
</svg>
