<svg width="24" height="24" viewBox="0 0 24 24" fill="none" xmlns="http://www.w3.org/2000/svg">
<path d="M3 7.18605L12.2195 3L14.9959 4.32361M3 7.18605V16.3953L12.2195 21M3 7.18605L6.23669 8.8026M21 7.18605V16.3953L12.2195 21M21 7.18605L12.2195 11.7907M21 7.18605L17.7722 5.64721M12.2195 21V11.7907M12.2195 11.7907L9.14634 10.2558L9.0121 10.1888M9.0121 10.1888L17.7722 5.64721M9.0121 10.1888L6.23669 8.8026M9.0121 10.1888V13.7427L7.82927 12.6279H6.23669V8.8026M17.7722 5.64721L14.9959 4.32361M14.9959 4.32361L6.23669 8.8026" stroke="#495F6A" stroke-width="2" stroke-linejoin="round"/>
</svg>
