<svg width="18" height="18" viewBox="0 0 18 18" fill="none" xmlns="http://www.w3.org/2000/svg">
<path d="M5.6665 14.0008C4.74984 14.0008 4.00817 14.7508 4.00817 15.6675C4.00817 16.5841 4.74984 17.3341 5.6665 17.3341C6.58317 17.3341 7.33317 16.5841 7.33317 15.6675C7.33317 14.7508 6.58317 14.0008 5.6665 14.0008ZM1.49984 0.66748C1.0396 0.66748 0.666504 1.04058 0.666504 1.50081C0.666504 1.96105 1.0396 2.33415 1.49984 2.33415H1.7007C2.08696 2.33415 2.43868 2.5566 2.60422 2.9056L5.11373 8.19648C5.25151 8.48699 5.24121 8.82603 5.08604 9.10764L4.20817 10.7008C4.07484 10.9341 3.99984 11.2091 3.99984 11.5008C3.99984 12.4175 4.74984 13.1675 5.6665 13.1675H14.8332C15.2934 13.1675 15.6665 12.7944 15.6665 12.3341C15.6665 11.8739 15.2934 11.5008 14.8332 11.5008H6.0165C5.91699 11.5008 5.83566 11.4341 5.8139 11.3421C5.80625 11.3097 5.81225 11.2762 5.82031 11.2439C5.82885 11.2098 5.84179 11.1769 5.85881 11.146L6.29791 10.3508C6.4739 10.032 6.80923 9.83415 7.17333 9.83415H12.7915C13.4165 9.83415 13.9665 9.49248 14.2498 8.97581L17.2332 3.56748C17.2998 3.45081 17.3332 3.30915 17.3332 3.16748C17.3332 2.70915 16.9582 2.33415 16.4998 2.33415H4.80978C4.42224 2.33415 4.0696 2.11024 3.90476 1.75951L3.66158 1.24212C3.49674 0.89139 3.1441 0.66748 2.75656 0.66748H1.49984ZM13.9998 14.0008C13.0832 14.0008 12.3415 14.7508 12.3415 15.6675C12.3415 16.5841 13.0832 17.3341 13.9998 17.3341C14.9165 17.3341 15.6665 16.5841 15.6665 15.6675C15.6665 14.7508 14.9165 14.0008 13.9998 14.0008Z" fill="white"/>
</svg>
