<svg width="48" height="48" viewBox="0 0 48 48" fill="none" xmlns="http://www.w3.org/2000/svg">
<rect width="48" height="48" rx="24" fill="#574B9B" fill-opacity="0.04"/>
<path d="M25.7066 16.7926C24.9267 15.5164 23.0733 15.5164 22.2934 16.7926L20.3595 19.9571C19.5451 21.2898 20.5043 23 22.0661 23H25.9339C27.4957 23 28.4549 21.2898 27.6404 19.9571L25.7066 16.7926ZM23.0737 19.3487C23.4974 18.6586 24.5007 18.6598 24.9228 19.3509C25.364 20.0733 24.8441 21 23.9976 21C23.15 21 22.6303 20.0711 23.0737 19.3487ZM29.5 25C27.01 25 25 27.01 25 29.5C25 31.99 27.01 34 29.5 34C31.99 34 34 31.99 34 29.5C34 27.01 31.99 25 29.5 25ZM29.5 32C28.12 32 27 30.88 27 29.5C27 28.12 28.12 27 29.5 27C30.88 27 32 28.12 32 29.5C32 30.88 30.88 32 29.5 32ZM15 31.5C15 32.6046 15.8954 33.5 17 33.5H21C22.1046 33.5 23 32.6046 23 31.5V27.5C23 26.3954 22.1046 25.5 21 25.5H17C15.8954 25.5 15 26.3954 15 27.5V31.5ZM17 29.5C17 28.3954 17.8954 27.5 19 27.5C20.1046 27.5 21 28.3954 21 29.5C21 30.6046 20.1046 31.5 19 31.5C17.8954 31.5 17 30.6046 17 29.5Z" fill="#67517A"/>
</svg>
