<svg width="32" height="32" viewBox="0 0 32 32" fill="none" xmlns="http://www.w3.org/2000/svg">
<path fill-rule="evenodd" clip-rule="evenodd" d="M20.5445 15.0222C20.5445 18.0721 18.0721 20.5445 15.0222 20.5445C11.9724 20.5445 9.5 18.0721 9.5 15.0222C9.5 11.9724 11.9724 9.5 15.0222 9.5C18.0721 9.5 20.5445 11.9724 20.5445 15.0222ZM19.5848 21.0033C18.3192 21.9701 16.7378 22.5445 15.0222 22.5445C10.8678 22.5445 7.5 19.1766 7.5 15.0222C7.5 10.8678 10.8678 7.5 15.0222 7.5C19.1766 7.5 22.5445 10.8678 22.5445 15.0222C22.5445 16.7379 21.9701 18.3193 21.0032 19.5849L24.2083 22.79C24.5988 23.1805 24.5967 23.8158 24.2062 24.2063C23.8157 24.5968 23.1804 24.5989 22.7899 24.2084L19.5848 21.0033Z" fill="#495F6A"/>
</svg>
