<svg width="40" height="40" viewBox="0 0 40 40" fill="none" xmlns="http://www.w3.org/2000/svg">
<path d="M29.6875 38.126H1.875V33.126H27.5C28.9918 33.126 30.4226 32.5333 31.4775 31.4785C32.5324 30.4236 33.125 28.9928 33.125 27.501V16.251C33.125 14.7591 32.5324 13.3284 31.4775 12.2735C30.4226 11.2186 28.9918 10.626 27.5 10.626H10V14.376L1.875 8.12598L10 1.87598V5.62598H29.6875C31.9253 5.62598 34.0714 6.51493 35.6537 8.09726C37.236 9.6796 38.125 11.8257 38.125 14.0635V29.6885C38.125 31.9262 37.236 34.0723 35.6537 35.6547C34.0714 37.237 31.9253 38.126 29.6875 38.126Z" fill="#4CAF50"/>
<path d="M1.875 18.126H18.125V34.376H1.875V18.126Z" fill="#2E7D32"/>
<path d="M18.125 18.126H28.125V34.376H18.125V18.126Z" fill="#4CAF50"/>
<path d="M8.125 18.126H11.875V21.876H8.125V18.126Z" fill="white"/>
<path d="M5.625 24.376H14.375V31.876H5.625V24.376Z" fill="white"/>
<path d="M7.5 26.251H10V27.501H7.5V26.251Z" fill="#4CAF50"/>
<path d="M10 28.751H12.5V30.001H10V28.751Z" fill="#4CAF50"/>
<path d="M25 31.251H26.25V32.501H25V31.251Z" fill="white"/>
<path d="M22.5 31.251H23.75V32.501H22.5V31.251Z" fill="white"/>
<path d="M20 31.251H21.25V32.501H20V31.251Z" fill="white"/>
</svg>
