<svg width="40" height="40" viewBox="0 0 40 40" fill="none" xmlns="http://www.w3.org/2000/svg">
<g clip-path="url(#clip0_2311_53896)">
<path d="M15.043 0.000976563V23.4186L20.7327 19.713H39.9997V0.000976562L15.043 0.000976563ZM26.5741 13.1882L26.5683 15.532L19.9636 15.5155L19.9707 13.6006C19.9707 13.6006 22.6971 10.6237 23.9058 9.14176C24.1963 8.78551 24.3563 8.3352 24.3563 7.87379C24.3563 7.21004 23.8393 6.65582 23.2038 6.6384C22.8785 6.62902 22.5738 6.74863 22.3421 6.97395C22.1105 7.19941 21.9828 7.50152 21.9828 7.82473H19.6391C19.6391 6.86332 20.0185 5.96465 20.7077 5.2941C21.3967 4.62395 22.3059 4.26918 23.268 4.29559C25.1605 4.34738 26.7001 5.95254 26.7001 7.87379C26.7001 8.87348 26.3528 9.8498 25.722 10.6231C25.1183 11.3634 24.2553 12.3477 23.5124 13.1806L26.5741 13.1882ZM35.2852 15.5L32.9414 15.4949L32.9475 12.7593H27.7938L31.979 4.54215H35.3095L35.2852 15.5Z" fill="#FF5722"/>
<path d="M32.9522 10.4149L32.958 7.78223L31.6172 10.4149H32.9522Z" fill="#FF5722"/>
<path d="M16.6426 27.7705H27.2392V31.2H16.6426V27.7705Z" fill="#FF5722"/>
<path d="M8.80859 12.0244H12.227V23.3457H8.80859V12.0244Z" fill="#FF5722"/>
<path d="M6.3225 24.3779V12.0244H5.43477C2.43805 12.0244 0 14.4625 0 17.4592V25.0518C0 33.2938 6.70531 39.9991 14.9473 39.9991H21.8047C24.8014 39.9991 27.2395 37.5611 27.2395 34.5643V33.6839H15.6285C10.489 33.6839 6.3225 29.5175 6.3225 24.3779Z" fill="#FF5722"/>
</g>
<defs>
<clipPath id="clip0_2311_53896">
<rect width="40" height="40" fill="white" transform="translate(0 0.000976562)"/>
</clipPath>
</defs>
</svg>
