<svg width="40" height="40" viewBox="0 0 40 40" fill="none" xmlns="http://www.w3.org/2000/svg">
<g clip-path="url(#clip0_2311_53856)">
<path fill-rule="evenodd" clip-rule="evenodd" d="M27.2127 35.9189V21.1425L40 13.7597V27.9705C40 28.3294 39.8208 28.6397 39.51 28.8192L27.2127 35.9189ZM11.8306 28.5749H1.51328C0.677578 28.5749 0 27.8973 0 27.0616C0 26.2259 0.677578 25.5483 1.51328 25.5483H11.7768C13.5515 25.5483 13.5515 22.7141 11.7768 22.7141H5.60914C4.77344 22.7141 4.09578 22.0365 4.09578 21.2008C4.09578 20.3651 4.77344 19.6875 5.60914 19.6875H10.433C12.2077 19.6875 12.2077 16.8533 10.433 16.8533H1.51336C0.677656 16.8533 7.8125e-05 16.1757 7.8125e-05 15.34C7.8125e-05 14.5043 0.677656 13.8268 1.51336 13.8268H11.8796L24.5511 21.1427V35.9189L11.8306 28.5749ZM13.0851 11.4571L25.8819 18.8453L38.6787 11.457L25.9064 4.08301H17.5264C16.6907 4.08301 16.0131 4.76059 16.0131 5.59629C16.0131 6.43199 16.6907 7.10957 17.5264 7.10957H19.2973C19.46 7.10957 19.5963 7.21418 19.6384 7.37129C19.6805 7.5284 19.6148 7.68715 19.4739 7.76855L13.0851 11.4571ZM12.3566 4.08301C13.1923 4.08301 13.8699 4.76059 13.8699 5.59629C13.8699 6.43199 13.1923 7.10957 12.3566 7.10957H3.15844C2.32273 7.10957 1.64508 6.43199 1.64508 5.59629C1.64508 4.76059 2.32266 4.08301 3.15844 4.08301H12.3566Z" fill="#FFB400"/>
</g>
<defs>
<clipPath id="clip0_2311_53856">
<rect width="40" height="40" fill="white" transform="translate(0 0.000976562)"/>
</clipPath>
</defs>
</svg>
