<svg width="40" height="40" viewBox="0 0 40 40" fill="none" xmlns="http://www.w3.org/2000/svg">
<path d="M17.5 12.501V10.001H2.5C1.1225 10.001 0 11.1235 0 12.501V17.501H18.0275C17.68 15.9735 17.5 14.3285 17.5 12.501Z" fill="#007DFF"/>
<path d="M39.8975 22.501C38.1925 25.1285 35.5925 27.3635 31.8675 29.5035C31.295 29.831 30.65 30.001 30 30.001C29.35 30.001 28.705 29.831 28.14 29.5085C24.415 27.3635 21.815 25.126 20.1075 22.501H0V35.001C0 36.381 1.1225 37.501 2.5 37.501H37.5C38.88 37.501 40 36.381 40 35.001V22.501H39.8975ZM11.25 30.001H6.25C5.56 30.001 5 29.441 5 28.751C5 28.061 5.56 27.501 6.25 27.501H11.25C11.94 27.501 12.5 28.061 12.5 28.751C12.5 29.441 11.94 30.001 11.25 30.001Z" fill="#007DFF"/>
<path d="M39.2425 6.35223L30.4925 2.60223C30.175 2.46723 29.8225 2.46723 29.505 2.60223L20.755 6.35223C20.2975 6.54723 20 6.99973 20 7.49973V12.4997C20 19.3772 22.5425 23.3972 29.3775 27.3347C29.57 27.4447 29.785 27.4997 30 27.4997C30.215 27.4997 30.43 27.4447 30.6225 27.3347C37.4575 23.4072 40 19.3872 40 12.4997V7.49973C40 6.99973 39.7025 6.54723 39.2425 6.35223ZM34.7275 12.0322L29.7275 18.2822C29.4875 18.5772 29.1275 18.7497 28.75 18.7497C28.7325 18.7497 28.7125 18.7497 28.6975 18.7497C28.3 18.7322 27.9325 18.5272 27.71 18.1947L25.21 14.4447C24.8275 13.8697 24.9825 13.0947 25.5575 12.7122C26.1275 12.3322 26.905 12.4822 27.29 13.0597L28.8425 15.3872L32.7725 10.4722C33.205 9.93473 33.9925 9.84973 34.53 10.2772C35.07 10.7047 35.155 11.4922 34.7275 12.0322Z" fill="#007DFF"/>
</svg>
