<svg width="18" height="19" viewBox="0 0 18 19" fill="none" xmlns="http://www.w3.org/2000/svg">
<path d="M8.48326 14.1394C8.80106 13.9476 9.19894 13.9476 9.51674 14.1394L11.606 15.4004C12.3633 15.8575 13.2975 15.1785 13.0966 14.317L12.5421 11.9403C12.4578 11.5788 12.5806 11.2003 12.8612 10.9573L14.7086 9.35689C15.3772 8.77768 15.0198 7.67942 14.1384 7.60464L11.7084 7.39848C11.3388 7.36712 11.0169 7.13379 10.8722 6.79229L9.92072 4.54737C9.57613 3.73434 8.42387 3.73434 8.07928 4.54737L7.12782 6.79229C6.98308 7.13379 6.66121 7.36712 6.29164 7.39848L3.86163 7.60464C2.98021 7.67942 2.6228 8.77768 3.29139 9.35689L5.13879 10.9573C5.41936 11.2003 5.54221 11.5788 5.45787 11.9403L4.90341 14.317C4.70245 15.1785 5.63668 15.8575 6.394 15.4004L8.48326 14.1394Z" fill="#495F6A"/>
</svg>
