<svg width="18" height="18" viewBox="0 0 18 18" fill="none" xmlns="http://www.w3.org/2000/svg">
<path d="M8.48326 13.6404C8.80106 13.4486 9.19894 13.4486 9.51674 13.6404L11.606 14.9014C12.3633 15.3584 13.2975 14.6795 13.0966 13.818L12.5421 11.4413C12.4578 11.0798 12.5806 10.7013 12.8612 10.4583L14.7086 8.85786C15.3772 8.27866 15.0198 7.1804 14.1384 7.10562L11.7084 6.89945C11.3388 6.8681 11.0169 6.63476 10.8722 6.29326L9.92072 4.04835C9.57613 3.23532 8.42387 3.23532 8.07928 4.04835L7.12782 6.29326C6.98308 6.63476 6.66121 6.8681 6.29164 6.89945L3.86163 7.10562C2.98021 7.1804 2.6228 8.27866 3.29139 8.85786L5.13879 10.4583C5.41936 10.7013 5.54221 11.0798 5.45787 11.4413L4.90341 13.818C4.70245 14.6795 5.63668 15.3584 6.394 14.9014L8.48326 13.6404Z" fill="#FFB400"/>
</svg>
